<?xml version="1.0" encoding="utf-8"?>
<!-- Generator: Adobe Illustrator 27.9.0, SVG Export Plug-In . SVG Version: 6.00 Build 0)  -->
<svg version="1.1" id="Layer_1" xmlns="http://www.w3.org/2000/svg" xmlns:xlink="http://www.w3.org/1999/xlink" x="0px" y="0px"
	 viewBox="0 0 57.4 66.5" style="enable-background:new 0 0 57.4 66.5;" xml:space="preserve">
<style type="text/css">
	.st0{fill:#667EEA;}
	.st1{fill:#EBF5FF;}
</style>
<g>
	<g>
		<path class="st0" d="M17.4,64.7L17.4,64.7c-0.3,0.3-0.5,0.5-0.8,0.6c-0.3,0.2-0.6,0.2-1,0.2c-0.7,0-1.2-0.2-1.5-0.6
			c-0.3-0.4-0.5-1-0.5-1.7v-3.1h1.4v3c0,0.4,0.1,0.7,0.3,0.9s0.4,0.3,0.8,0.3c0.2,0,0.4,0,0.5-0.1c0.2-0.1,0.3-0.2,0.4-0.3
			c0.1-0.1,0.2-0.3,0.2-0.5c0.1-0.2,0.1-0.4,0.1-0.6v-2.7h1.4v5.3h-1.4L17.4,64.7L17.4,64.7z"/>
		<path class="st0" d="M19.6,57.7h1.4v4.2H21l1.8-1.8h1.8v0.1l-1.9,1.8l2.1,3.2v0.1h-1.7l-1.5-2.3L21,63.7v1.7h-1.4L19.6,57.7
			L19.6,57.7z"/>
	</g>
	<g>
		<path class="st0" d="M28,57.6c0.2,0,0.4,0,0.6,0.1c0.2,0,0.3,0.1,0.5,0.1l-0.4,1.3c-0.1,0-0.2-0.1-0.2-0.1c-0.1,0-0.2,0-0.3,0
			c-0.2,0-0.4,0.1-0.5,0.2c-0.1,0.1-0.2,0.3-0.2,0.6v0.4h1.3v1.2h-1.3v4.1h-1.5v-4.1h-1v-1.2h1v-0.5c0-0.3,0-0.6,0.1-0.9
			c0.1-0.3,0.2-0.5,0.4-0.6c0.2-0.2,0.4-0.3,0.6-0.4C27.4,57.6,27.7,57.6,28,57.6z"/>
		<path class="st0" d="M31.5,60c0.4,0,0.8,0.1,1.2,0.2c0.3,0.1,0.6,0.3,0.9,0.6c0.3,0.3,0.5,0.6,0.6,0.9c0.1,0.3,0.2,0.7,0.2,1.2
			c0,0.4-0.1,0.8-0.2,1.2c-0.1,0.4-0.3,0.7-0.6,0.9c-0.3,0.3-0.6,0.5-0.9,0.6c-0.3,0.1-0.7,0.2-1.2,0.2c-0.4,0-0.8-0.1-1.2-0.2
			c-0.3-0.1-0.6-0.3-0.9-0.6c-0.3-0.3-0.5-0.6-0.6-0.9c-0.1-0.4-0.2-0.7-0.2-1.2c0-0.4,0.1-0.8,0.2-1.2c0.1-0.4,0.3-0.7,0.6-0.9
			c0.3-0.3,0.6-0.5,0.9-0.6C30.7,60.1,31.1,60,31.5,60z M31.5,64.2c0.2,0,0.4,0,0.5-0.1c0.2-0.1,0.3-0.2,0.5-0.3
			c0.1-0.1,0.2-0.3,0.3-0.5c0.1-0.2,0.1-0.4,0.1-0.6c0-0.2,0-0.5-0.1-0.6c-0.1-0.2-0.2-0.4-0.3-0.5c-0.1-0.1-0.3-0.2-0.5-0.3
			c-0.2-0.1-0.4-0.1-0.5-0.1c-0.2,0-0.4,0-0.5,0.1c-0.2,0.1-0.3,0.2-0.5,0.3c-0.1,0.1-0.2,0.3-0.3,0.5c-0.1,0.2-0.1,0.4-0.1,0.6
			c0,0.2,0,0.5,0.1,0.6c0.1,0.2,0.2,0.4,0.3,0.5c0.1,0.1,0.3,0.2,0.5,0.3C31.1,64.2,31.3,64.2,31.5,64.2z"/>
		<path class="st0" d="M36,60.8L36,60.8c0.3-0.3,0.5-0.5,0.8-0.6c0.3-0.2,0.6-0.2,1-0.2c0.3,0,0.6,0.1,0.9,0.2
			c0.3,0.1,0.5,0.3,0.6,0.5c0.2,0.2,0.3,0.4,0.4,0.7c0.1,0.3,0.1,0.6,0.1,0.9v3.2h-1.4v-3c0-0.4-0.1-0.7-0.3-0.9s-0.4-0.3-0.8-0.3
			c-0.2,0-0.4,0-0.5,0.1c-0.2,0.1-0.3,0.2-0.4,0.3c-0.1,0.1-0.2,0.3-0.2,0.5c-0.1,0.2-0.1,0.4-0.1,0.6v2.5h-1.4v-5.2h1.4L36,60.8
			L36,60.8z"/>
		<path class="st0" d="M40.8,61.3h-0.9v-1.2h0.9v-1.7h1.4v1.7h1.3v1.2h-1.3v2.1c0,0.1,0,0.2,0,0.4c0,0.1,0.1,0.2,0.1,0.3
			c0.1,0.1,0.2,0.2,0.4,0.2c0.1,0,0.2,0,0.3,0c0.1,0,0.1-0.1,0.2-0.1l0.4,1.3c-0.2,0.1-0.4,0.1-0.5,0.2c-0.2,0-0.4,0.1-0.6,0.1
			c-0.3,0-0.5,0-0.7-0.1s-0.4-0.2-0.5-0.4C41,65,40.8,64.5,40.8,64C40.8,64,40.8,61.3,40.8,61.3z"/>
	</g>
	<g>
		<g>
			<path class="st0" d="M2.6,26.8c-1.1,0-1.8,0.9-1.8,1.8c0,1.1,0.9,1.8,1.8,1.8c1.1,0,1.8-0.9,1.8-1.8C4.6,27.7,3.7,26.8,2.6,26.8z
				 M2.6,29.3c-0.4,0-0.7-0.3-0.7-0.7s0.3-0.7,0.7-0.7s0.7,0.3,0.7,0.7C3.3,29,3,29.3,2.6,29.3z"/>
			<path class="st0" d="M6.1,13.7c-1.1,0-1.8,0.9-1.8,1.8c0,1.1,0.9,1.8,1.8,1.8c1.1,0,1.8-0.9,1.8-1.8S7.2,13.7,6.1,13.7z
				 M6.1,16.3c-0.4,0-0.7-0.3-0.7-0.7c0-0.4,0.3-0.7,0.7-0.7c0.4,0,0.7,0.3,0.7,0.7C6.7,16,6.5,16.3,6.1,16.3z"/>
			<path class="st0" d="M6.1,39.8c-1.1,0-1.8,0.9-1.8,1.8c0,1.1,0.9,1.8,1.8,1.8c1.1,0,1.8-0.9,1.8-1.8C8,40.7,7.2,39.8,6.1,39.8z
				 M6.1,42.4c-0.4,0-0.7-0.3-0.7-0.7S5.7,41,6.1,41c0.4,0,0.7,0.3,0.7,0.7S6.5,42.4,6.1,42.4z"/>
			<path class="st0" d="M51.3,13.7c1.1,0,1.8,0.9,1.8,1.8c0,1.1-0.9,1.8-1.8,1.8c-1.1,0-1.8-0.9-1.8-1.8S50.2,13.7,51.3,13.7z
				 M51.3,16.3c0.4,0,0.7-0.3,0.7-0.7c0-0.4-0.3-0.7-0.7-0.7s-0.7,0.3-0.7,0.7C50.7,16,50.9,16.3,51.3,16.3z"/>
			<path class="st0" d="M28.7,0.7c1.1,0,1.8,0.9,1.8,1.8c0,1.1-0.9,1.8-1.8,1.8c-1.1,0-1.8-0.9-1.8-1.8C26.9,1.6,27.7,0.7,28.7,0.7z
				 M28.7,3.3c0.4,0,0.7-0.3,0.7-0.7S29.1,2,28.7,2C28.3,2,28,2.3,28,2.6C28.1,3,28.4,3.3,28.7,3.3z"/>
			<path class="st0" d="M15.7,4.2c1.1,0,1.8,0.9,1.8,1.8c0,1.1-0.9,1.8-1.8,1.8c-1.1,0-1.8-0.9-1.8-1.8C13.8,5.1,14.6,4.2,15.7,4.2z
				 M15.7,6.7c0.4,0,0.7-0.3,0.7-0.7c0-0.4-0.3-0.7-0.7-0.7S15,5.7,15,6C15.1,6.4,15.4,6.7,15.7,6.7z"/>
			<path class="st0" d="M51.3,39.8c1.1,0,1.8,0.9,1.8,1.8c0,1.1-0.9,1.8-1.8,1.8c-1.1,0-1.8-0.9-1.8-1.8
				C49.4,40.7,50.2,39.8,51.3,39.8z M51.3,42.4c0.4,0,0.7-0.3,0.7-0.7S51.7,41,51.3,41s-0.7,0.3-0.7,0.7S50.9,42.4,51.3,42.4z"/>
			<path class="st0" d="M41.7,4.2c1.1,0,1.8,0.9,1.8,1.8c0,1.1-0.9,1.8-1.8,1.8c-1.1,0-1.8-0.9-1.8-1.8C39.9,5.1,40.7,4.2,41.7,4.2z
				 M41.7,6.7c0.4,0,0.7-0.3,0.7-0.7c0-0.4-0.3-0.7-0.7-0.7S41.1,5.7,41.1,6C41.1,6.4,41.4,6.7,41.7,6.7z"/>
		</g>
		<g>
			<path class="st0" d="M46,18l-1.6,0.9l0,0l-11,6.3c-0.3,0.2-0.4,0.6-0.2,0.9c0.1,0.2,0.3,0.3,0.6,0.3l0,0l0,0c0.1,0,0.2,0,0.3-0.1
				L46.8,19c0.3-0.2,0.4-0.6,0.2-0.9C46.7,17.9,46.3,17.8,46,18z"/>
			<path class="st0" d="M45.8,13C45.8,12.9,45.8,12.9,45.8,13c-0.2-0.2-0.4-0.4-0.5-0.6c-0.1-0.1-0.1-0.1-0.2-0.2
				c-0.2-0.2-0.4-0.4-0.6-0.6c-0.1-0.1-0.2-0.2-0.2-0.2c-0.2-0.2-0.4-0.3-0.6-0.5c-0.1-0.1-0.2-0.2-0.4-0.3s-0.3-0.3-0.5-0.4
				c-0.2-0.1-0.3-0.3-0.5-0.4c-0.1-0.1-0.2-0.2-0.4-0.3c-0.2-0.2-0.5-0.3-0.7-0.5c-0.1,0-0.1-0.1-0.2-0.1c-0.3-0.2-0.6-0.4-1-0.6
				l0,0c-3.4-1.8-7.3-2.9-11.5-2.9l0,0l0,0c-4.2,0-8.1,1.1-11.5,3l0,0c-0.3,0.2-0.6,0.4-1,0.6c-0.1,0-0.1,0.1-0.2,0.1
				c-0.2,0.2-0.5,0.3-0.7,0.5c-0.1,0.1-0.3,0.2-0.4,0.3c-0.2,0.1-0.3,0.3-0.5,0.4c-0.2,0.1-0.3,0.3-0.5,0.4
				c-0.1,0.1-0.2,0.2-0.4,0.3c-0.2,0.2-0.4,0.3-0.6,0.5c-0.1,0.1-0.2,0.1-0.2,0.2c-0.2,0.2-0.4,0.4-0.6,0.6
				c-0.1,0.1-0.1,0.1-0.2,0.2c-0.2,0.2-0.3,0.3-0.5,0.5l0,0c-3.8,4.2-6.2,9.7-6.2,15.8c0,5.8,2.1,11.4,6,15.7
				c0.1,0.1,0.3,0.2,0.5,0.2c0.2,0,0.3-0.1,0.4-0.2c0.3-0.2,0.3-0.6,0-0.9c-3.6-4.1-5.6-9.3-5.6-14.8c0-5.9,2.4-11.4,6.2-15.4
				c0.1-0.1,0.2-0.2,0.3-0.3c0.2-0.2,0.3-0.3,0.5-0.5c0.1-0.1,0.2-0.2,0.3-0.3s0.3-0.3,0.4-0.4c0.2-0.1,0.3-0.3,0.5-0.4
				c0.1-0.1,0.2-0.2,0.4-0.3c0.2-0.2,0.4-0.3,0.6-0.5c0.1-0.1,0.2-0.1,0.2-0.2c0.3-0.2,0.5-0.4,0.8-0.5c0,0,0.1,0,0.1-0.1
				c3.6-2,7.7-3.3,11.9-3.3S37,7.8,40.5,10c0,0,0.1,0,0.1,0.1c0.3,0.2,0.5,0.3,0.8,0.5c0.1,0.1,0.2,0.1,0.2,0.2
				c0.2,0.1,0.4,0.3,0.6,0.5c0.1,0.1,0.2,0.2,0.4,0.3s0.3,0.2,0.5,0.4c0.2,0.1,0.3,0.3,0.4,0.4c0.1,0.1,0.2,0.2,0.3,0.3
				c0.2,0.2,0.3,0.3,0.5,0.5c0.1,0.1,0.2,0.2,0.3,0.3c3.9,4,6.2,9.4,6.2,15.4c0,5.5-2,10.8-5.7,14.8c-0.2,0.3-0.2,0.7,0,0.9
				c0.1,0.1,0.3,0.2,0.4,0.2c0.2,0,0.4-0.1,0.5-0.2c3.9-4.3,6-9.8,6-15.7C52,22.6,49.6,17,45.8,13z"/>
			<path class="st0" d="M28.7,33.9L28.7,33.9L28.7,33.9c-0.4,0-0.7,0.3-0.7,0.6v9.8c0,0.4,0.3,0.6,0.6,0.6l0,0l0,0
				c0.4,0,0.6-0.3,0.6-0.6v-9.8C29.3,34.2,29.1,33.9,28.7,33.9z"/>
			<path class="st0" d="M12.9,18.9L11.4,18c-0.3-0.2-0.7-0.1-0.9,0.2c-0.2,0.3-0.1,0.7,0.2,0.9l12.7,7.3c0.1,0.1,0.2,0.1,0.3,0.1
				l0,0l0,0c0.2,0,0.4-0.1,0.6-0.3c0.2-0.3,0.1-0.7-0.2-0.9L12.9,18.9C13,18.9,12.9,18.9,12.9,18.9z"/>
			<path class="st0" d="M19.1,10.7c-0.1-0.2-0.4-0.3-0.6-0.3c-0.1,0-0.2,0-0.2,0.1c-0.3,0.2-0.4,0.6-0.2,0.9l7.3,12.7
				c0.1,0.2,0.3,0.3,0.6,0.3l0,0l0,0c0.1,0,0.2,0,0.3-0.1c0.3-0.2,0.4-0.6,0.2-0.9L19.1,10.7z"/>
			<path class="st0" d="M39.2,10.5c-0.1,0-0.2-0.1-0.2-0.1c-0.2,0-0.5,0.1-0.6,0.3l-7.3,12.7c-0.2,0.3-0.1,0.7,0.2,0.9
				c0.1,0.1,0.2,0.1,0.3,0.1l0,0l0,0c0.2,0,0.4-0.1,0.6-0.3l7.3-12.7C39.6,11.1,39.5,10.7,39.2,10.5z"/>
			<path class="st0" d="M34.1,36.7L34.1,36.7l-4.8-8.3c-0.1-0.2-0.3-0.3-0.6-0.3c-0.2,0-0.4,0.1-0.6,0.3l-4.8,8.3l0,0l-8.9,15.4
				c-0.2,0.3-0.1,0.7,0.2,0.9c0.1,0,0.2,0.1,0.2,0.1l0,0l0,0l0,0c0.1,0,0.2,0,0.2-0.1l0,0c0.1-0.1,0.2-0.1,0.2-0.2l4.9-8.5l0,0
				L28.7,30L37,44.3l0,0l4.9,8.5c0.1,0.1,0.1,0.2,0.2,0.2l0,0c0.1,0,0.2,0.1,0.2,0.1l0,0l0,0l0,0c0.1,0,0.2,0,0.2-0.1
				c0.3-0.2,0.4-0.6,0.2-0.9L34.1,36.7z"/>
			<path class="st0" d="M24.6,28.7c0,0.6,0.1,1.2,0.4,1.8c0.1,0.2,0.3,0.4,0.6,0.4c0.1,0,0.2,0,0.3-0.1c0.3-0.2,0.5-0.5,0.3-0.9
				c0-0.1,0-0.1-0.1-0.2c-0.1-0.3-0.2-0.7-0.2-1c0-1.6,1.3-2.8,2.8-2.8s2.8,1.3,2.8,2.8c0,0.4-0.1,0.7-0.2,1c0,0.1,0,0.1-0.1,0.2
				c-0.2,0.3,0,0.7,0.3,0.9c0.1,0,0.2,0.1,0.3,0.1c0.2,0,0.5-0.1,0.6-0.4c0.3-0.6,0.4-1.1,0.4-1.8c0-2.2-1.8-4.1-4.1-4.1l0,0l0,0
				C26.5,24.6,24.6,26.5,24.6,28.7z"/>
			<path class="st0" d="M34.1,31.1C34,31,33.9,31,33.8,31c-0.2,0-0.5,0.1-0.6,0.3c-0.2,0.3-0.1,0.7,0.2,0.9L45.4,39h0.1l0.6,0.3
				c0.1,0.1,0.2,0.1,0.3,0.1c0.2,0,0.4-0.1,0.6-0.3c0.2-0.3,0.1-0.7-0.2-0.9L34.1,31.1z"/>
			<path class="st0" d="M49.7,28.7c0-0.4-0.3-0.6-0.6-0.6h-3.8H34.4l0,0c-0.4,0-0.6,0.3-0.6,0.6c0,0.4,0.3,0.6,0.6,0.6l0,0h10.8H49
				C49.4,29.3,49.7,29,49.7,28.7z"/>
			<path class="st0" d="M11.1,39.5c0.1,0,0.2,0,0.3-0.1l0.6-0.3h0.1l12.1-6.9c0.3-0.2,0.4-0.6,0.2-0.9c-0.2-0.3-0.5-0.4-0.7-0.4
				c-0.1,0-0.2,0-0.2,0.1l-12.7,7.3c-0.3,0.2-0.4,0.6-0.2,0.9C10.6,39.4,10.8,39.5,11.1,39.5z"/>
			<path class="st0" d="M7.7,28.7c0,0.4,0.3,0.6,0.6,0.6h3.8h10.8l0,0c0.4,0,0.6-0.3,0.6-0.6c0-0.4-0.3-0.6-0.6-0.6l0,0H12.1H8.4
				C8,28,7.7,28.3,7.7,28.7z"/>
			<path class="st0" d="M28.7,23.6L28.7,23.6c0.4,0,0.6-0.3,0.6-0.6V8.4c0-0.4-0.3-0.6-0.6-0.6l0,0l0,0c-0.4,0-0.6,0.3-0.6,0.6V23
				C28,23.3,28.3,23.6,28.7,23.6L28.7,23.6z"/>
		</g>
		<g>
			<path class="st0" d="M54.8,26.8c1.1,0,1.8,0.9,1.8,1.8c0,1.1-0.9,1.8-1.8,1.8c-1.1,0-1.8-0.9-1.8-1.8
				C52.8,27.7,53.7,26.8,54.8,26.8z M54.8,29.3c0.4,0,0.7-0.3,0.7-0.7s-0.3-0.7-0.7-0.7s-0.7,0.3-0.7,0.7
				C54.1,29,54.4,29.3,54.8,29.3z"/>
		</g>
		<g>
			<path class="st1" d="M2.6,27.2c-0.9,0-1.6,0.7-1.6,1.6c0,0.9,0.7,1.6,1.6,1.6s1.6-0.7,1.6-1.6S3.5,27.2,2.6,27.2z M2.6,29.7
				c-0.6,0-1-0.5-1-1c0-0.6,0.5-1,1-1c0.6,0,1,0.5,1,1C3.6,29.3,3.2,29.7,2.6,29.7z"/>
			<path class="st1" d="M6.1,14.1c-0.9,0-1.6,0.7-1.6,1.6c0,0.9,0.7,1.6,1.6,1.6s1.6-0.7,1.6-1.6C7.7,14.8,7,14.1,6.1,14.1z
				 M6.1,16.7c-0.6,0-1-0.5-1-1c0-0.6,0.5-1,1-1s1,0.5,1,1C7.1,16.3,6.7,16.7,6.1,16.7z"/>
			<path class="st1" d="M6.1,40.2c-0.9,0-1.6,0.7-1.6,1.6c0,0.9,0.7,1.6,1.6,1.6s1.6-0.7,1.6-1.6S7,40.2,6.1,40.2z M6.1,42.7
				c-0.6,0-1-0.5-1-1c0-0.6,0.5-1,1-1c0.6,0,1,0.5,1,1C7.1,42.4,6.7,42.7,6.1,42.7z"/>
			<path class="st1" d="M54.8,27.2c0.9,0,1.6,0.7,1.6,1.6c0,0.9-0.7,1.6-1.6,1.6c-0.9,0-1.6-0.7-1.6-1.6S53.9,27.2,54.8,27.2z
				 M54.8,29.7c0.6,0,1-0.5,1-1c0-0.6-0.5-1-1-1c-0.6,0-1,0.5-1,1C53.8,29.3,54.2,29.7,54.8,29.7z"/>
			<path class="st1" d="M51.3,14.1c0.9,0,1.6,0.7,1.6,1.6c0,0.9-0.7,1.6-1.6,1.6c-0.9,0-1.6-0.7-1.6-1.6
				C49.7,14.8,50.4,14.1,51.3,14.1z M51.3,16.7c0.6,0,1-0.5,1-1c0-0.6-0.5-1-1-1s-1,0.5-1,1C50.3,16.3,50.7,16.7,51.3,16.7z"/>
			<path class="st1" d="M28.7,1.1c0.9,0,1.6,0.7,1.6,1.6s-0.7,1.6-1.6,1.6s-1.6-0.7-1.6-1.6C27.2,1.8,27.9,1.1,28.7,1.1z M28.7,3.6
				c0.6,0,1-0.5,1-1c0-0.6-0.5-1-1-1c-0.6,0-1,0.5-1,1C27.7,3.2,28.2,3.6,28.7,3.6z"/>
			<path class="st1" d="M15.7,4.6c0.9,0,1.6,0.7,1.6,1.6s-0.7,1.6-1.6,1.6c-0.9,0-1.6-0.7-1.6-1.6C14.2,5.3,14.9,4.6,15.7,4.6z
				 M15.7,7.1c0.6,0,1-0.5,1-1c0-0.6-0.5-1-1-1c-0.6,0-1,0.5-1,1C14.7,6.7,15.1,7.1,15.7,7.1z"/>
			<path class="st1" d="M51.3,40.2c0.9,0,1.6,0.7,1.6,1.6c0,0.9-0.7,1.6-1.6,1.6c-0.9,0-1.6-0.7-1.6-1.6
				C49.7,40.9,50.4,40.2,51.3,40.2z M51.3,42.7c0.6,0,1-0.5,1-1c0-0.6-0.5-1-1-1c-0.6,0-1,0.5-1,1C50.3,42.4,50.7,42.7,51.3,42.7z"
				/>
			<path class="st1" d="M41.7,4.6c0.9,0,1.6,0.7,1.6,1.6c0,0.8-0.7,1.5-1.6,1.5S40.2,6.9,40.2,6C40.2,5.3,40.9,4.6,41.7,4.6z
				 M41.7,7.1c0.6,0,1-0.5,1-1c0-0.6-0.5-1-1-1c-0.6,0-1,0.5-1,1C40.8,6.7,41.2,7.1,41.7,7.1z"/>
		</g>
		<g>
			<path class="st0" d="M46.3,39.5c0.2,0,0.4-0.1,0.6-0.3c0.2-0.3,0.1-0.7-0.2-0.9l-12.7-7.3c-0.3-0.2-0.7-0.1-0.9,0.2
				s-0.1,0.7,0.2,0.9L46,39.4C46.1,39.5,46.2,39.5,46.3,39.5z"/>
			<path class="st0" d="M34.4,29.3H49c0.4,0,0.6-0.3,0.6-0.6c0-0.4-0.3-0.6-0.6-0.6H34.4c-0.4,0-0.6,0.3-0.6,0.6
				C33.9,29,34.2,29.3,34.4,29.3z"/>
			<path class="st0" d="M28.7,44.9c-0.4,0-0.6-0.3-0.6-0.6v-9.8c0-0.4,0.3-0.6,0.6-0.6c0.4,0,0.6,0.3,0.6,0.6v9.8
				C29.3,44.6,29.1,44.9,28.7,44.9z"/>
			<path class="st0" d="M11.1,39.5c-0.2,0-0.4-0.1-0.6-0.3c-0.2-0.3-0.1-0.7,0.2-0.9l12.7-7.3c0.3-0.2,0.7-0.1,0.9,0.2
				s0.1,0.7-0.2,0.9l-12.7,7.3C11.3,39.5,11.2,39.5,11.1,39.5z"/>
			<path class="st0" d="M23,29.3H8.4c-0.4,0-0.6-0.3-0.6-0.6c0-0.4,0.3-0.6,0.6-0.6H23c0.4,0,0.6,0.3,0.6,0.6
				C23.5,29,23.2,29.3,23,29.3z"/>
			<path class="st0" d="M23.7,26.5c-0.1,0-0.2,0-0.3-0.1l-12.7-7.3c-0.3-0.2-0.4-0.6-0.2-0.9c0.2-0.3,0.6-0.4,0.9-0.2l12.7,7.3
				c0.3,0.2,0.4,0.6,0.2,0.9C24.1,26.3,23.9,26.5,23.7,26.5z"/>
			<path class="st0" d="M31.6,24.3c-0.1,0-0.2,0-0.3-0.1c-0.3-0.2-0.4-0.6-0.2-0.9l7.3-12.7c0.2-0.3,0.6-0.4,0.9-0.2
				c0.3,0.2,0.4,0.6,0.2,0.9l-7.3,12.7C32,24.2,31.8,24.3,31.6,24.3z"/>
			<path class="st0" d="M25.8,24.3c-0.2,0-0.4-0.1-0.6-0.3l-7.3-12.7c-0.2-0.3-0.1-0.7,0.2-0.9c0.3-0.2,0.7-0.1,0.9,0.2l7.3,12.7
				c0.2,0.3,0.1,0.7-0.2,0.9C26.1,24.3,25.9,24.3,25.8,24.3z"/>
			<path class="st0" d="M28.7,23.6c-0.4,0-0.6-0.3-0.6-0.6V8.4c0-0.4,0.3-0.6,0.6-0.6c0.4,0,0.6,0.3,0.6,0.6V23
				C29.3,23.3,29.1,23.6,28.7,23.6z"/>
		</g>
		<g>
			<path class="st1" d="M28.7,44.5c-0.1,0-0.3-0.1-0.3-0.3v-9.7c0-0.1,0.1-0.3,0.3-0.3c0.1,0,0.3,0.1,0.3,0.3v9.8
				C29,44.4,28.8,44.5,28.7,44.5z"/>
			<path class="st1" d="M11.1,39.1c-0.1,0-0.2,0-0.2-0.1c-0.1-0.1,0-0.3,0.1-0.4l12.7-7.3c0.1-0.1,0.3,0,0.4,0.1s0,0.3-0.1,0.4
				l-12.7,7.3C11.2,39.1,11.1,39.1,11.1,39.1z"/>
			<path class="st1" d="M23,29H8.4c-0.1,0-0.3-0.1-0.3-0.3c0-0.1,0.1-0.3,0.3-0.3H23c0.1,0,0.3,0.1,0.3,0.3C23.2,28.8,23.1,29,23,29
				z"/>
			<path class="st1" d="M23.7,26.1L23.7,26.1L11,18.8c-0.1-0.1-0.2-0.2-0.1-0.4c0.1-0.1,0.2-0.2,0.4-0.1l12.7,7.3
				c0.1,0.1,0.2,0.2,0.1,0.4C23.8,26,23.8,26.1,23.7,26.1z"/>
			<path class="st1" d="M31.6,24L31.6,24c-0.2-0.1-0.3-0.2-0.2-0.4l7.3-12.7c0.1-0.1,0.2-0.2,0.4-0.1c0.1,0.1,0.2,0.2,0.1,0.4
				l-7.3,12.7C31.7,24,31.6,24,31.6,24z"/>
			<path class="st1" d="M25.8,24c-0.1,0-0.2,0-0.2-0.1l-7.3-12.7c-0.1-0.1,0-0.3,0.1-0.4c0.1-0.1,0.3,0,0.4,0.1l7.3,12.7
				c0.1,0.1,0,0.3-0.1,0.4C25.9,24,25.9,24,25.8,24z"/>
			<path class="st1" d="M28.7,23.2c-0.1,0-0.3-0.1-0.3-0.3V8.3c0-0.1,0.1-0.3,0.3-0.3C28.8,8,29,8.1,29,8.3v14.6
				C29,23.1,28.8,23.2,28.7,23.2z"/>
			<path class="st1" d="M33.7,26.1L33.7,26.1l12.7-7.3c0.1-0.1,0.2-0.2,0.1-0.4c0-0.1-0.2-0.2-0.3-0.1l-12.7,7.3
				c-0.1,0.1-0.2,0.2-0.1,0.4C33.6,26,33.6,26.1,33.7,26.1z"/>
			<path class="st1" d="M34.4,29H49c0.1,0,0.3-0.1,0.3-0.3c0-0.1-0.1-0.3-0.3-0.3H34.4c-0.1,0-0.3,0.1-0.3,0.3
				C34.2,28.8,34.3,29,34.4,29z"/>
			<path class="st1" d="M46.3,39.1c0.1,0,0.2,0,0.2-0.1c0.1-0.1,0-0.3-0.1-0.4l-12.7-7.3c-0.1-0.1-0.3,0-0.4,0.1
				c-0.1,0.1,0,0.3,0.1,0.4l12.7,7.3C46.2,39.1,46.3,39.1,46.3,39.1z"/>
		</g>
	</g>
</g>
</svg>
