<?xml version="1.0" encoding="UTF-8"?><svg id="Layer_1" xmlns="http://www.w3.org/2000/svg" viewBox="0 0 419.3 54.1"><defs><style>.cls-1{fill:#d48e64;}.cls-1,.cls-2,.cls-3,.cls-4,.cls-5,.cls-6,.cls-7,.cls-8,.cls-9,.cls-10,.cls-11,.cls-12,.cls-13,.cls-14,.cls-15,.cls-16,.cls-17,.cls-18,.cls-19,.cls-20,.cls-21,.cls-22,.cls-23,.cls-24,.cls-25,.cls-26,.cls-27,.cls-28,.cls-29,.cls-30,.cls-31,.cls-32,.cls-33,.cls-34,.cls-35,.cls-36,.cls-37,.cls-38,.cls-39,.cls-40,.cls-41,.cls-42{stroke-width:0px;}.cls-43{stroke:#f9bc15;}.cls-43,.cls-44,.cls-45,.cls-46,.cls-47,.cls-48,.cls-49,.cls-50,.cls-51,.cls-52,.cls-53,.cls-54,.cls-55,.cls-56,.cls-57,.cls-58,.cls-59,.cls-60,.cls-61,.cls-62,.cls-63,.cls-64,.cls-65,.cls-66{fill:none;}.cls-43,.cls-44,.cls-45,.cls-46,.cls-47,.cls-50,.cls-51,.cls-53,.cls-55,.cls-57,.cls-58,.cls-59,.cls-60,.cls-61,.cls-62,.cls-63,.cls-64,.cls-65,.cls-67,.cls-66{stroke-width:.4px;}.cls-2{fill:#208e45;}.cls-3{fill:#91b2de;}.cls-4{fill:#674424;}.cls-5{fill:#5b7fc0;}.cls-6{fill:#cb6229;}.cls-44{stroke:#3868b2;}.cls-45{stroke:#d98758;}.cls-7{fill:#deb093;}.cls-8{fill:#18733b;}.cls-46{stroke:#b22024;}.cls-46,.cls-48,.cls-49,.cls-50,.cls-51,.cls-68,.cls-54,.cls-55,.cls-56,.cls-58,.cls-64,.cls-67,.cls-66{stroke-linecap:round;}.cls-47,.cls-64{stroke:#b8332a;}.cls-9{fill:#c2c1c0;}.cls-48{stroke-width:.7px;}.cls-48,.cls-50,.cls-51,.cls-68,.cls-56,.cls-67,.cls-66{stroke:#d4e1f3;}.cls-10{fill:#ed675c;}.cls-11{fill:#372422;}.cls-12{fill:#91b2dd;}.cls-49{stroke:#787878;}.cls-49,.cls-52{stroke-width:.4px;}.cls-13{fill:#c24739;}.cls-14{fill:#ce835a;}.cls-50,.cls-15,.cls-17,.cls-58,.cls-62{isolation:isolate;}.cls-50,.cls-17,.cls-58{opacity:.5;}.cls-15{fill:#9a9fa5;}.cls-15,.cls-62{opacity:.2;}.cls-51{stroke-linejoin:round;}.cls-68,.cls-54,.cls-56{stroke-width:.8px;}.cls-68,.cls-21,.cls-67{fill:#fff;}.cls-16{fill:#6b6b6b;}.cls-52{stroke:#a5a4a4;}.cls-53{stroke:#18733b;}.cls-54{stroke:#3768b2;}.cls-55{stroke:#3f70b7;}.cls-57{stroke:#dddfe0;}.cls-17{fill:#d98758;}.cls-18{fill:#dddfe0;}.cls-19{fill:#d4e1f3;}.cls-20{fill:#fdd663;}.cls-58{stroke:#55a55c;}.cls-59{stroke:#1a8140;}.cls-22{fill:#55a55c;}.cls-60,.cls-62{stroke:#547dbf;}.cls-23{fill:#eca880;}.cls-24{fill:#81c995;}.cls-61{stroke:#7198cf;}.cls-25{fill:#f7aea9;}.cls-26{fill:#e8976f;}.cls-27{fill:#34a851;}.cls-28{fill:#a42422;}.cls-29{fill:#e6c1a9;}.cls-30{fill:#ebebeb;}.cls-31{fill:#da513e;}.cls-32{fill:#f2bd41;}.cls-63{stroke:#d3987a;}.cls-33{fill:#98705b;}.cls-34{fill:#873f32;}.cls-35{fill:#842d1b;}.cls-36{fill:#f2f3f4;}.cls-65{stroke:#5bb874;}.cls-37{fill:#f7ab1b;}.cls-38{fill:#a25a4b;}.cls-39{fill:#a9d8b5;}.cls-40{fill:#f19920;}.cls-41{fill:#b1c9e9;}.cls-42{fill:#7198cf;}</style></defs><path class="cls-19" d="m369.1,18.6l1.3,11.3h-2.5l-.2-1.7h-1.3l-.2,1.7h-2.5l1.3-11.3h3.9Zm-1.9,2.1h-.2l-.4,5.5h.9s-.4-5.5-.4-5.5Z"/><circle class="cls-66" cx="367.1" cy="24.6" r="9"/><path class="cls-66" d="m367,33.7v15.4"/><path class="cls-66" d="m360.6,50.8c.9-1.8,3-2.8,5-2.3,2,.5,3.4,2.3,3.4,4.3"/><path class="cls-66" d="m356.2,52.9c0-.9.5-1.8,1.2-2.3.8-.5,1.8-.5,2.7,0s1.3,1.4,1.2,2.3"/><path class="cls-66" d="m368,50c1-.4,2.1-.3,3,.3s1.4,1.6,1.4,2.6"/><path class="cls-66" d="m316.9,51.2c.9-1.8,3-2.8,5-2.3,2,.5,3.4,2.3,3.4,4.3"/><path class="cls-66" d="m327.8,51.1c.9-1.8,3-2.8,5-2.3,2,.5,3.4,2.3,3.4,4.3"/><path class="cls-66" d="m312.5,53.2c0-.9.5-1.8,1.2-2.3.8-.5,1.8-.5,2.7,0s1.3,1.4,1.2,2.3"/><path class="cls-66" d="m308.9,53.2c0-1,.6-1.9,1.5-2.3s2-.3,2.7.4"/><path class="cls-66" d="m336.2,53.2c0-.9.5-1.8,1.2-2.3.8-.5,1.8-.5,2.7,0s1.3,1.4,1.2,2.3"/><path class="cls-66" d="m324.2,50.3c1-.4,2.1-.3,3,.3s1.4,1.6,1.4,2.6"/><path class="cls-66" d="m317.7,42.9v7.1"/><path class="cls-66" d="m314.4,37.6v-4.1c0-1.8,1.5-3.3,3.3-3.3h0c1.8,0,3.3,1.5,3.3,3.3v6.1c0,1.8-1.5,3.3-3.3,3.3h0c-.6,0-1.2-.2-1.7-.5"/><path class="cls-66" d="m312.5,46.3v4.5"/><path class="cls-66" d="m312.5,37.3h0c1.8,0,3.3,1.4,3.3,3.3v2.5c0,1.8-1.4,3.3-3.3,3.3h0c-1.8,0-3.3-1.4-3.3-3.3v-2.5c0-1.8,1.4-3.3,3.3-3.3Z"/><path class="cls-48" d="m321.1,33.9h5.7v6.2"/><path class="cls-48" d="m309.3,27.5h8.8v2.5"/><path class="cls-48" d="m326.8,40.1h8.8v6.2"/><path class="cls-48" d="m335.6,46.2h8.8v6.9"/><path class="cls-48" d="m344.3,53.2h8.8"/><path class="cls-48" d="m318.1,27.7v1.7"/><path class="cls-30" d="m356.3,26.3s-3,.1-6.5,0c-1.9,0-3.7-.6-5.2-1.6-.2-.1-.5-.3-.6-.5-.2-.4-.6,1.9-1.1,1.8l-1.2.9-3.3-.8,3,3.8s-.2-.2,3.8-.9c3.4-.6,8.2-.8,11.2-.9l-.2-1.9h0Z"/><path class="cls-1" d="m356.3,26.3h2.4v.9l-2.3.4v-1.3c-.1,0,0,0,0,0Z"/><ellipse class="cls-1" cx="359" cy="27.3" rx="1" ry="1.2" transform="translate(298.6 382.2) rotate(-84.7)"/><path class="cls-1" d="m343.7,26l-2.3-5.7-1,1.4s0,.1-.1.2c-.2.4-.2.9,0,1.3.2.4.5.8.9.9h.3c0,.1.3,2.7.3,2.7l2-.9h0Z"/><path class="cls-30" d="m333.4,19s2,2.1,4.6,4.5c1.4,1.3,3,2.1,4.9,2.5.3,0,.5,0,.8,0,.4-.2,1.4,1.9,1.8,2.1l1.1,1.2,1,2.7-4.8,2.2c-.9-2-2.1-3.9-3.4-5.6-2.1-2.8-5.3-6.3-7.4-8.4l1.4-1.2h0Z"/><path class="cls-1" d="m347.4,52l1.8-1.1.8,1.6-2.3.2-.3-.6h0Z"/><path class="cls-32" d="m342.8,41.5v-7.6c0-.2.1-.4.2-.6.4-.5,1.6-1.6,3.9-1.5.2,0,.5.1.7.3l5.2,5.2-10,4.2h0Z"/><path class="cls-40" d="m352.9,37.4c.3.7-1.7,2.3-4.4,3.5-2.8,1.2-5.3,1.5-5.7.7s1.7-2.3,4.5-3.5,5.3-1.6,5.6-.8h0Z"/><path class="cls-1" d="m361,37.2l-2.8.3.7-1.4,2.3.5s0,.5,0,.5Z"/><path class="cls-1" d="m358.6,36.2l-6.2,3.4-.9-1.4c-1,.2-1.9.6-2.8,1l2.6,3c.4.5,1.2.5,1.7.1l6.1-5.3c.2-.2.2-.4,0-.5-.1-.2-.3-.2-.5-.2Z"/><path class="cls-1" d="m349.7,52.4c0,.2.2.3.4.3.2,0,.3-.2.3-.4l-2.8-12.7c-1,.5-1.9,1.1-2.8,1.8l4.9,11.1h0Z"/><path class="cls-14" d="m350.9,37.1h-.5c-.9.3-1.8.5-2.7.9l.9,1.1c.9-.4,1.9-.7,2.8-1l-.6-1h0Z"/><path class="cls-14" d="m344.1,39.9l.4.9.2.5c.9-.7,1.8-1.2,2.8-1.8l-.3-1.4c-1.1.5-2.2,1.1-3.2,1.7h0Z"/><path class="cls-4" d="m341.4,20.4l1.1,2.6c.3,1.8.5,3.5.6,5.3,0,2.6,3.3,5.2,5.8,1.9,2.5-3.2-4.6-10.2-4.6-10.2,0,0-1.8-1.1-2.9.3"/><ellipse class="cls-1" cx="342.4" cy="22.8" rx=".6" ry=".5" transform="translate(44 192.3) rotate(-33.4)"/><path class="cls-1" d="m333.4,19l-1.7-1.7-.7.7,1.4,1.9,1-.9h0Z"/><ellipse class="cls-1" cx="330.8" cy="17.8" rx="1" ry="1.2" transform="translate(109.2 264.1) rotate(-51.1)"/><path class="cls-9" d="m346.7,52.5l.9-.5.5.2c.2,0,.4,0,.6,0h1.8c0,.2,0,.4,0,.5,0,.2-.2.2-.4.2h-3.1c-.2,0-.4-.3-.2-.4h0Z"/><path class="cls-9" d="m361.9,37.1h-.9c0,0-.2,0-.2,0-.2-.1-.4-.2-.5-.2l-1.7-.5c0-.2,0-.4.2-.5.2-.1.3-.2.5,0l2.8.9c.1,0,.2.2.2.3s-.1.2-.3.2h0Z"/><path class="cls-33" d="m323.8,3.7v8c0,.7-1-.8-1.7-.8l-4.6,1.8,5.2-8.7,1.1-.2h0Z"/><path class="cls-33" d="m319.3,3.1l-1.8,2.8,1.4,1.2,1.2-2.8-.7-1.3h0Z"/><path class="cls-29" d="m320.9,7.2l.4,1.3-2.4.8-1-1.7.9-1.2,1.6-2.7c.2-.3.4-.4.7-.5.3,0,.6,0,.9.1l1.6.9s-.9,2.5-1.9,2.7c-.2,0-.4,0-.5,0l-.2.4h0Z"/><path class="cls-28" d="m316.2,13.8s0,1.1,1,1.2c.8,0,1.6-.2,2.3-.5l-1.2-1.7s-.9-.4-2,.7"/><path class="cls-29" d="m317.9,12.6l1,3,4.3-.6-.5-2.3-4.9-.2h0Z"/><path class="cls-31" d="m326.6,33.9l2.1-2.2c.3-.3.5-.5.3-.9l-.6-1.1h0l-1.9.9-.6,2.9c0,.2,0,.4.2.4.2,0,.4,0,.5,0h0Z"/><path class="cls-31" d="m314.6,26l-1.5.9c-.2,0-.2.2-.2.4s.2.3.4.3h3.4c.1,0,.2,0,.3-.2,0-.1.1-.2,0-.4l-.2-1.1h-2.2Z"/><path class="cls-29" d="m315.3,20l.8-.4-1.3-2.8-2.3,1.2c-.6.3-.9,1.1-.6,1.7l1,2.3h2.9l-.5-2.1h0Z"/><path class="cls-36" d="m312.9,22l1.7,3.9h2.1l-.9-3.9h-2.9,0Z"/><path class="cls-29" d="m325.2,20.3l-3.3,1.3,2.5,4.9,2.6-1.1-1.8-5.1h0Z"/><path class="cls-36" d="m328.5,29.7l-1.6-4.4-2.6,1.1,2.2,4.2,1.9-.9h0Z"/><path class="cls-5" d="m322.5,14.2c-1.1,0-2.2,0-3.3.4-.3,0-.6.2-.9.3l-3.6,1.9,1.6,3.4,3.5-.9,1.4,2.5,3.9-1.5-1.9-5.5c-.1-.3-.4-.5-.7-.5h0Z"/><path class="cls-44" d="m318.3,16.9l2.8,5"/><path class="cls-7" d="m321.8,21.6l.2.5,3.5-.5-.4-1.3-3.3,1.3Z"/><circle class="cls-36" cx="315.8" cy="26.6" r=".4"/><circle class="cls-36" cx="327.9" cy="30.9" r=".4"/><path class="cls-46" d="m313.6,26.6l.2.3"/><path class="cls-46" d="m314.1,26.3l.2.3"/><path class="cls-46" d="m326.2,32.2h.4"/><path class="cls-46" d="m326.4,31.4h.4"/><path class="cls-7" d="m322.9,13.6c-.9.2-1.8.2-2.7.1-.6,0-1.3,0-1.8.4l-.4-1.3-.4-.9,5.1.4.2,1.2h0Z"/><path class="cls-31" d="m314.6,25.9l-.2-.5h.5c.3,0,.5.2.6.5h-.9Z"/><path class="cls-31" d="m326.5,30.6l-.2-.4.5-.2c.3-.1.5,0,.7.2l-1,.4h0Z"/><path class="cls-7" d="m321.1,6.8l-1.2-.7.9,1.4.3-.7h0Z"/><path class="cls-33" d="m323.8,3.7c-.1,1.2-1.6.6-2.6.6s-1.5.4-1.8.8c-.2.4-.7-.3-.7-.7,0-1.1,1.5-2.8,3.1-2.8s2.1,1,2,2Z"/><ellipse class="cls-29" cx="320.5" cy="4.2" rx=".5" ry=".4" transform="translate(281.2 322.3) rotate(-83.7)"/><path class="cls-29" d="m309.1,1.9l-3.6-1.9c-.1.2,0,.5,0,.7l1.2,1.2v.2c0,.3.3.5.5.7l1.1.6.7-1.4h0Z"/><path class="cls-29" d="m329,14.8l2,2.1-.9.9-2.1-1.9.9-1h0Z"/><ellipse class="cls-29" cx="330.5" cy="17.5" rx=".9" ry="1.1" transform="translate(84.4 238.8) rotate(-45)"/><path class="cls-31" d="m313.9,4.2l-4.8-2.3-.9,1.7s3.2,1.8,4.6,2.8c1.3.9,2.3,2.6,2.9,4,.6,1.4.5,3.4.5,3.4,1-1,1.9-1.2,3.4-.7,1.1.3,2.2.4,3.3.3l-.4-1.9,5.3,4.4,1.1-1.1-6.1-6.5c-.3-.3-.6-.5-1-.7l-1-.4s-.1.3-.2.3c-.3.8-1.1,1.2-1.6,1s-.9-1.1-.5-1.9c0,0,.1-.2.1-.2l-4.9-2.1h0Z"/><path class="cls-64" d="m324,12.9l-2.2-1.9"/><path class="cls-64" d="m316,12.4s-.6-4,.8-6.1"/><path class="cls-66" d="m406.6,12.6c0,.7.6,1.3,1.3,1.3s1.3-.6,1.3-1.3"/><path class="cls-66" d="m416,35.5v5.2"/><path class="cls-66" d="m407.9,9.8v-2.5c0-2.2,1.8-4,4-4s4,1.8,4,4v17.9"/><path class="cls-66" d="m413.1,52.9l.5-9.9c0-1.3,1.2-2.4,2.5-2.4h0c1.3,0,2.4,1.1,2.5,2.4l.5,9.9"/><path class="cls-66" d="m411,12.6h-6.2c0-1.6,1.2-2.8,2.8-2.8h.5c.7,0,1.4.3,2,.8.5.5.8,1.2.8,2h0Z"/><circle class="cls-66" cx="411.6" cy="30.4" r="6.7"/><path class="cls-66" d="m404.9,28.8c-2.7,1.4-6,.9-8.1-1.2s-2.5-5.5-.9-8.1,4.6-3.9,7.6-3,4.9,3.5,4.9,6.5,0,.9-.2,1.4"/><path class="cls-66" d="m411.4,37.1v15.9"/><path class="cls-66" d="m401.6,29.6v22.8"/><path class="cls-50" d="m384.6,53h9.4"/><path class="cls-50" d="m396,53h11.3"/><path class="cls-50" d="m374.4,53h6.9"/><path class="cls-39" d="m376.4,33.4c-4.2,3.5-3.2,11.3-3.2,11.3h8.7v-6.6c0-1.4.2-3.1.4-3.7l-4.1-2.7c-.5.6-1.1,1.2-1.8,1.7h0Z"/><path class="cls-23" d="m381.2,44.7l-1.4,6c0,.3,0,.6.3.7l1.5.9c.2.1.3.3.2.5,0,.2-.2.4-.5.4h-4.2l-1.4-8.4h5.5Z"/><path class="cls-45" d="m378.9,43.8l-.3,7.5,1.8,1.1c.3.2.4.5.4.9,0,.3-.4.5-.7.5h-3.6"/><path class="cls-17" d="m375.9,46.1h5l.3-1.4h-5.5l.2,1.4h0Z"/><path class="cls-6" d="m382,24.2s-.8-2.8,2-3.5c2.8-.7,3.5,2.3,3.8,3.8s4.4,5.6.9,7.4c-3.5,1.8-4.7-.9-5.3-2-.6-1.2-1.4-5.7-1.4-5.7Z"/><path class="cls-23" d="m387.9,27.1l9.3,2.7c-.2.4-.6.5-1,.4l-.8-.2-.9.2c-.2,0-.4,0-.6,0l-6.6-1.2.6-2.1h0Z"/><path class="cls-23" d="m381.6,25.6l.4-1.1c.2-.2.4-.4.6-.6.8-.6.8-.1,1.1-.6.2-.3.8-.4,1.1-.5l1.4-.6c-.2.8-.4,1.5-.8,2.2-.3.4-.8.6-1.3.4h-.3c0-.1-.4.8-.4.8l1.5.5-.9,2.4-2.5-1.2v-1.4c0,0,.2-.5.2-.5"/><ellipse class="cls-23" cx="383.6" cy="23.5" rx=".5" ry=".4" transform="translate(312.3 401.1) rotate(-82.8)"/><path class="cls-24" d="m384.4,26.1l3.9,1-.5,2.5-3.1-.9-.3-2"/><path class="cls-39" d="m385.2,27.9c-.2-.7-.4-1.2-.8-1.8-.1.5-.5.9-1,1.1s-1.1,0-1.4-.4c-.3-.3-.4-.7-.4-1.2-.8.1-1.5.5-1.9,1.1-1.1,1.4-1.3,3.5-2.3,5.9l4.9,1.8c0-.5.2-1,.6-1.4l.7.7,2-1.8-1.1-1.1c.6-.8.9-1.9.7-2.9h0Z"/><path class="cls-65" d="m384.6,30.7l-1.3-1.5"/><path class="cls-65" d="m382.8,33.2l-2-2.3s-1-1.1-1-1.9"/><path class="cls-17" d="m383.8,24.9l-1.1-.4.7,1.1.4-.7h0Z"/><path class="cls-61" d="m396.7,52.1h5.8"/><path class="cls-9" d="m396.3,51.5c0,.2.2.4.4.4h3.5c.2,0,.3,0,.3-.2,0-.2,0-.3-.1-.4l-2.2-1.1h-2.2l.3,1.3Z"/><path class="cls-9" d="m398.4,51.5c0,.1,0,.2.1.3s.2.1.3.1h3.5c.2,0,.3-.1.3-.2s0-.3-.1-.4l-2.2-1.1h-2.2l.4,1.3h0Z"/><path class="cls-52" d="m397.9,50.2l.3,1.3c0,0,0,.2.1.2,0,0,.2,0,.2,0"/><path class="cls-49" d="m401.2,51l.2-.3"/><path class="cls-42" d="m390.7,39.9h4.6c.6,0,1.1.2,1.6.5.5.4,1,.9,1.1,1.6l2.3,8.3h-4.3l-1.9-5.8h-3.7c-1.6,0-3-1.3-3-3v-1.2h3.4"/><path class="cls-60" d="m397.9,50.2l-2.4-7.5h-.9"/><path class="cls-49" d="m400.7,50.7l.3-.4"/><circle class="cls-3" cx="396" cy="51.6" r="1.3"/><circle class="cls-42" cx="396" cy="51.6" r=".5"/><rect class="cls-16" x="397.9" y="29.9" width="2.8" height=".6" transform="translate(219.3 387.9) rotate(-67.6)"/><path class="cls-38" d="m397.1,32.9l.7-1.1,1.2.7-.6,1.1-1.3-.8h0Z"/><circle class="cls-38" cx="398.8" cy="32.2" r="1.1"/><path class="cls-11" d="m394,28.2c-.4,1.3-1,2.4-2.2,2.2-1.3-.2-2.3-1.1-2-2.5.2-1.3,1.4-2.3,2.7-2.1,1.6.3,1.8,1.4,1.6,2.3h0Z"/><path class="cls-38" d="m392.7,31.8l.2-1.1h0c.2,0,.4,0,.5,0,.5-.2.7-.6.8-1.1,0-.6,0-1.2,0-1.8h-.1c-.7-.1-1.3.3-1.4,1v.5c-.1,0-1.4-.2-1.4-.2l-.3,1-.3,1.3-.2,1.4,2.4.4v-1.2h0Z"/><ellipse class="cls-38" cx="391.3" cy="29.1" rx=".6" ry=".5" transform="translate(298.7 410.4) rotate(-80.6)"/><circle class="cls-68" cx="389.3" cy="46.5" r="6.5"/><circle class="cls-3" cx="389.3" cy="46.5" r=".9"/><path class="cls-38" d="m390.7,39.6l1.7.9c.2.1.4.3.5.5.1.4.2.7.1,1.1,0,.2-.2.4-.3.5h-.1c-.2.2-.4.2-.7,0-.2,0-.4-.3-.4-.5v-.5c0,0-1.8-.7-1.8-.7l.9-1.4h0Z"/><path class="cls-62" d="m390,34l-2.7,3.7,4.1,2.4"/><path class="cls-19" d="m398.9,33.8l-3.3,4.9c-.2.2-.4.4-.6.4-.3,0-.5,0-.7-.2l-.5-.5v1.4h-2.2l-1.3,2.1-5.3-2.8c-.4-.2-.6-.5-.7-.9s0-.8.3-1.1l4.3-5.4c.7-.9,1.4-.9,1.6-.9h.2l1.7.5c.2,0,.4.2.6.3h0c.3.2.5.5.7.8.7,1.4,1.1,3.7,1.1,3.7l2.4-3.5,1.8,1.2h0Z"/><path class="cls-62" d="m393.9,38.8v-3.1"/><path class="cls-38" d="m392.9,31.5c-.2.5-.6.9-1.2.7-.6-.2-1.3-.9-1.1-1.6h.2l1.6.5c.2,0,.4.2.5.3h0Z"/><path class="cls-23" d="m388.2,30.8l-2.7,1.9-.4-.4-1.5,1.4.2.2.6.7c.2.2.4.3.7.3s.5,0,.7-.2l3.2-3-.7-.9h0Z"/><path class="cls-23" d="m388.9,31.7l1.3-.8s-.2-1-1-1-.6.2-.8.5l-.3.4.7.9h0Z"/><path class="cls-66" d="m284.6,51.2c-.9-1.8-3-2.8-5-2.3s-3.4,2.3-3.4,4.3"/><path class="cls-66" d="m273.6,51.1c-.9-1.8-3-2.8-5-2.3-2,.5-3.4,2.3-3.4,4.3"/><path class="cls-66" d="m265.3,53.2c0-1.4-1.2-2.6-2.6-2.6s-2.6,1.2-2.6,2.6"/><path class="cls-66" d="m277.3,50.3c-1-.4-2.1-.3-3,.3s-1.4,1.6-1.4,2.6"/><path class="cls-51" d="m270,50.1v2.8l1.3-1.3"/><path class="cls-2" d="m305.6,41.6l6.1,9.7-1.7.9-4.4-6.1s0-4.5,0-4.5Z"/><path class="cls-23" d="m312.1,53.3c0-.2-.3-1.2-.1-1.2h1.4c.7,0,1.2.5,1.2,1.2"/><path class="cls-37" d="m298.9,46.2l-5.4-2.8c-1.1-.5-2.4-.3-3.1.7l-5.1,6.5,2.3,1.7,5.1-4.8,3.4,2.4,3.8-1.7-.9-2.1h0Z"/><path class="cls-23" d="m304.7,41l.5-1.9.4-2.1-2.1-.8-1.4.2s-1,.9-.5,3c.5,2.1,1.2,3,1.2,3l1.9-1.2h0Z"/><path class="cls-50" d="m302.6,53.3h5.3"/><path class="cls-23" d="m311.7,51.3l1.2,2h-1.7l-.9-1.2,1.3-.7h0Z"/><path class="cls-50" d="m278.4,53.3h12"/><path class="cls-32" d="m301.6,53.3h-8.9c-.8,0-1.4-.7-1.4-1.4s.4-1.2,1.1-1.4l7.5-2.2,3.2,3.7c.2.2.3.6.1.9-.2.3-.4.5-.8.5h-.7Z"/><path class="cls-22" d="m306.8,44.8c-.1-2.4-1.5-4.1-2.7-4.1s-1.2.2-1.8.5l-.2.5h-2.1s-1.1,2.9-1.7,4.4c-.6,1.5-.7,3,.4,3s.7-.1,1.1-.3c.2,1.7,1,3.3,2.3,4.5,4.8,0,4.8-6.1,4.7-8.5h0Z"/><path class="cls-27" d="m299.2,49.4s.9-.4,5.5-4.5l-5.5,4.5Z"/><path class="cls-59" d="m299.2,49.4s.9-.4,5.5-4.5"/><path class="cls-27" d="m302.4,40.6l-1.5,4.8,1.5-4.8Z"/><path class="cls-59" d="m302.4,40.6l-1.5,4.8"/><path class="cls-6" d="m304.3,34.7c-1-.1-1.9.3-2.5,1.1-.1.2-.1.3,0,.5,0,.2.2.3.4.4l.4.2c.5.2.9.6,1,1.1v.3h.2c0-.2,0-.3.2-.5.2-.3.6-.4.9-.2.1.1.2.3.2.5,0,.3-.2.5-.2.8s0,.4.1.5v.3c1.2-.4,1.9-1.6,1.8-2.8s-1.1-2.2-2.3-2.3h0Z"/><path class="cls-23" d="m301.4,38.5v.6c.2.3.5.4.7.4l1.3-.2c.2,0,.4.1.4.3,0,.2,0,.3-.2.4l-1.1.6-.4,1.1h-1.8l.2-1.7c0-.5.3-1,.7-1.4h.1c0-.1,0,0,0,0Z"/><path class="cls-45" d="m301.1,38.2l.2,1c0,.3.3.5.7.5h1.2c.2-.1.4-.2.4,0h0c0,.2-.2.2-.3.3l-.9.5-.6,1.7"/><path class="cls-9" d="m281.6,52.5c-.2,0-.4.2-.4.5s.2.4.5.4h3.2c.3,0,.6,0,.8-.3l1.2-1.1-1.7-1.2-1.2,1.3-2.5.5Z"/><path class="cls-66" d="m56.8,12.1c0,.7.6,1.3,1.3,1.3s1.3-.6,1.3-1.3"/><path class="cls-66" d="m58.1,9.3v-2.5c0-2.2,1.8-4,4-4s4,1.8,4,4v34.1"/><path class="cls-66" d="m63.3,53.1l.5-9.9c0-1.3,1.2-2.4,2.5-2.4h0c1.3,0,2.4,1.1,2.5,2.4l.5,9.9"/><path class="cls-66" d="m61.2,12.1h-6.2c0-.7.3-1.4.8-2,.5-.5,1.2-.8,2-.8h.5c1.6,0,2.8,1.2,2.8,2.8h0Z"/><path class="cls-56" d="m99.5,16h7.9"/><path class="cls-23" d="m102.7,16.3c-.2.3,0,.7,0,1,.7,2.3,4.2,9,4.2,9,.2-.1.4-.2.6-.4.5-.3,1-.8.8-1.2l-4.5-7.5c-.1-.3-.1-.6,0-.9l.2-.6c0-.1,0-.2,0-.4,0-.1-.2-.2-.3-.2h-.4c-.2,0-.4.1-.4.3l-.3.9h0Z"/><path class="cls-34" d="m91.9,25.7l.2-.2c.2-.2.4-.2.7-.2h1.2c.2,0,.3,0,.4.2s0,.3,0,.4l-.4.7c0,.2-.2.2-.4.2h-.9l-.5-.2-.2-1.1"/><path class="cls-34" d="m83.6,27.2l8.3-1.6.2,1.1-7.6,2.5-.9-2h0Z"/><path class="cls-38" d="m84.1,27.9v-1.7c-.1,0,.9-.9.9-.9.4-.4.6-1,.4-1.5-.2-.6-.5-1.1-1.1-1.4l-2,2.7v2.8c-.1,0,1.8,0,1.8,0h0Z"/><path class="cls-8" d="m76.9,34.7c-1.2-.3-2,0-2.4.5-.6.8.7,1.9.7,1.9"/><path class="cls-56" d="m108,1.6l-31.7,51.4"/><path class="cls-56" d="m94.9,23.1h8.7"/><path class="cls-56" d="m90.9,29.3h8.5"/><path class="cls-56" d="m87.3,35.5h8.5"/><path class="cls-56" d="m83.1,42.1h8.7"/><path class="cls-56" d="m79.4,48.3h8.3"/><path class="cls-50" d="m68.2,53.2h5.5"/><path class="cls-50" d="m76.3,53.2h5.5"/><path class="cls-50" d="m84.8,53.2h11"/><path class="cls-38" d="m85.8,46.2v-3.2h-2.1l.5,4.3,1.8.2,1.3-.3-1.4-.9Z"/><path class="cls-2" d="m77,38.5l-4.4,9,1-.2,5.4-7.6c-.7-.2-1.4-.5-2-1.1h0Z"/><path class="cls-9" d="m71.4,52.9l-.9-.5-.5.2c-.2,0-.4,0-.6,0h-1.8c0,.2,0,.4,0,.5,0,.2.2.2.4.2h3.1c.2,0,.4-.3.2-.4h0Z"/><path class="cls-9" d="m87.9,47.6l-.9-.5-.5.2c-.2,0-.4,0-.6,0h-1.8c0,.2,0,.4,0,.5,0,.2.2.2.4.2h3.1c.1,0,.2,0,.2-.2,0,0,0-.2,0-.3Z"/><path class="cls-38" d="m72,48.8h-2.4l-1.8,3.7v.2c-.1,0,1.7,0,1.7,0,.2,0,.4,0,.6,0l.5-.2-.8-.5,2.3-3.2h0Z"/><path class="cls-22" d="m85.8,40.1c0-.9-.4-1.7-1.1-2.2-1.2-.8-3-1.9-4.6-3-1.3-.8-2.3-.7-3-.3-.6.3-1,.8-1.3,1.3l-6.4,12.8h3.1l6.5-9.2c1.3.5,2.7.9,4.1,1l.3,2.5h2.6v-2.9c-.1,0-.1,0-.1,0Z"/><path class="cls-53" d="m79.6,39.9s-3.1-.9-3.2-2.8"/><path class="cls-22" d="m69.4,48.8l.5-1h3.9l-.7,1h-3.7Z"/><path class="cls-2" d="m73.2,47.8l.4-.6-2.7.6h2.2Z"/><path class="cls-22" d="m83.4,43v-1c0,0,3,0,3,0l-.2,1h-2.8Z"/><path class="cls-2" d="m85.9,42.1v-.6l-1.8.6h1.8Z"/><path class="cls-34" d="m69.7,48.8h2.4l-.5.7-1.9-.7h0Z"/><path class="cls-34" d="m83.6,43h2.1v.8l-2.1-.8Z"/><path class="cls-39" d="m77.2,34.9s.4.1,1.8.5c.8.2,1.6.4,2.3.3l-.5-1.3-1.9-1.1v-2.6c0,0-.6,1.3-.6,1.3,0,.2-.2.3-.3.5-.5.5-1,1-1.6,1.4l-1.5.9c.6-.2,1.2-.3,1.9,0"/><path class="cls-39" d="m81.3,35.7s.8-1.7,1.6-2.6c.9-.9,1.7-.7,2.5-1.8.8-1.1-1.4-3.8-1.4-3.8-.6.2-1.2.1-1.9,0l-2.7,2.1c-.6,1.8-1.4,3.5-2.5,5.1l4.4,1.1h0Z"/><path class="cls-38" d="m94.4,28.4h-.4c-.4,0-.7.3-.7.7v.7c0,.2-.1.4-.3.5l-4.5,1.5-3.5-3c-.5-.5-1.5-.7-2-.2-.3.3-.5.7-.4,1.1,0,.4.2.8.5,1.1l4.5,3.5c.3.2.7.2,1,0l5.8-3.7c.4-.3.7-.7.7-1.2v-.2c0-.2,0-.4-.2-.5-.1-.1-.3-.2-.5-.2h0Z"/><path class="cls-35" d="m84.8,21.7c0-.7-.6-1.3-1.3-1.3s-1.3.6-1.3,1.3v.2c-.4.3-1.5,1.1-1,2.5-1.4.3-2.6,1.1-3.3,2.3-1.4,2,.2,3.4.2,3.4,0,0,2.1,1.5,3.5-.5.9-1.3,1.6-2.8,2-4.4,0,0,.6-.8.3-1.3-.2-.4,0-.9.2-1.1.3-.3.5-.6.5-1h0Z"/><ellipse class="cls-38" cx="83.8" cy="24.6" rx=".4" ry=".5" transform="translate(39.4 99.8) rotate(-75.8)"/><path class="cls-34" d="m93.3,25.6l-.8.5.2-.8h.7l-.2.4Z"/><path class="cls-58" d="m77.9,34.2c1.5.2,3-.4,3.9-1.6"/><path class="cls-56" d="m116.7,1.6l-31.8,51.4"/><path class="cls-56" d="m103.5,9h8.7"/><path class="cls-66" d="m119.5,53.2c0-1.4,1.2-2.6,2.6-2.6s2.6,1.2,2.6,2.6"/><path class="cls-23" d="m110.5,25.8l.6-1.4c.2-.5.5-.9.9-1.1l.4-.3.8.9c.3.4,1,1.1.9,1.5l-.4.9-1.2,1.2-1.9-1.7h0Z"/><path class="cls-13" d="m108.5,24.8l1.6,3.5-1.6,3s-1.1-.5-2.9-4.9l2.9-1.7Z"/><path class="cls-50" d="m102.7,53.2h7.6"/><path class="cls-50" d="m117.9,53.2h7.6"/><path class="cls-18" d="m111,40.3c-.7-1.4-1.4-2.9-2-4.6-3.4,4.1-5.1,9.4-4.9,14.7h2.5c.5-2.8,1.8-6.9,4.4-10h0Z"/><path class="cls-23" d="m106.6,50.3h-2.1c0,.4,0,.8,0,1.2h1.8c0-.4.1-.7.2-1.2h0Z"/><path class="cls-23" d="m120.7,50.3h-2.3c.5.6.9,1,1.1,1.2h1.9c-.3-.4-.5-.8-.8-1.2h0Z"/><path class="cls-31" d="m114.5,36.5s.9,0,.7-1.3c-.2-1.1-.8-1.1-1.1-2.7-.3-1.6-.7,2.3-.7,2.3l1.1,1.7h0Z"/><ellipse class="cls-28" cx="110.1" cy="25.7" rx="1.7" ry=".6" transform="translate(1.9 58.5) rotate(-30)"/><path class="cls-30" d="m111,40.3c1.7,3.6,3.9,7,6.6,10h3.2c-4.6-7.3-6.2-13.9-6.2-13.9-3.1-1.4-5.6-.8-5.6-.8l2.7,3.9c-.2.2-.5.5-.7.7h0Z"/><path class="cls-30" d="m111.7,39.6l-2.7-3.9c.7,1.7,1.3,3.2,2,4.6.2-.3.5-.5.7-.7h0Z"/><path class="cls-15" d="m106.9,48.8l-.2.6h-1.9l2.1-.6Z"/><path class="cls-18" d="m106.7,50.3l.2-.9h-3l.2.9h2.6,0Z"/><path class="cls-18" d="m119.8,48.8l.4.6h-2l1.6-.6h0Z"/><path class="cls-30" d="m120.9,50.3l-.5-.9h-3.9l.9.9h3.5,0Z"/><path class="cls-26" d="m118.4,50.3l2.7.5-.4-.5h-2.3,0Z"/><path class="cls-26" d="m104.5,50.3l1.9.5v-.5c0,0-2,0-2,0h0Z"/><path class="cls-23" d="m111.5,24.8l-2.7-7.2c-.2-.4-.1-.8,0-1.1,0,0,.4-.6.4-.6,0-.2.1-.4,0-.5,0-.2-.2-.4-.4-.4l-1,1.6v.2c-.3.3-.3.7-.2,1,.7,2.3,2.3,8.7,2.3,8.7.2-.1.4-.2.6-.4.5-.3,1-.8.8-1.2h0Z"/><path class="cls-31" d="m114.5,36.5l-5.6-.8s-1.9-4.7.2-7.8l-.5-1.4,2.9-1.8s2.6,3.3,3,11.7"/><path class="cls-47" d="m111,32.9c.6,1,1.6,1.8,2.8,2.1"/><path class="cls-47" d="m109.9,30.2l-1.1-2.8"/><path class="cls-4" d="m115.2,24l-.2-.5c-.1-.4-.5-.7-.9-.7h0c-.3,0-.5-.1-.7-.3l-.3-.3c-.2-.2-.4-.2-.5-.2s-.3.2-.4.4l-.4,1.2s.2-.1.2-.2c.2-.1.6-.4.6-.4l.5.9c.2.2.2.5.2.8v.5h0c.2-.1.4-.1.6,0,.2.1.3.3.2.5,0,.2-.2.4-.4.4-.1,0-.2,0-.4,0l-.5.8.2.6,1.7-1.1c.7-.6,1-1.6.7-2.5h0Z"/><ellipse class="cls-13" cx="107" cy="25.7" rx="1.7" ry=".6" transform="translate(1.5 57) rotate(-30)"/><path class="cls-5" d="m122.1,52.8c-.3-.5-.4-.7-.6-1.2h-1.9c-.5.3-1.6.7-2.2,1.2,0,0,0,0-.1.1h4.9c0,0,0,0,0,0Z"/><path class="cls-41" d="m117.6,53.4h4.2c.1,0,.2,0,.3-.2,0-.1,0-.2,0-.4h-4.9c0,.1,0,.3,0,.4s.2.2.3.2h0Z"/><path class="cls-41" d="m102.2,53.4h3.7c.2,0,.3-.1.3-.3v-.3h-4.2c-.1,0-.2.2-.1.4,0,.1.2.2.3.2h0Z"/><path class="cls-5" d="m106.4,51.5h-1.8l-2.6,1.3h4.2c0-.3,0-.7.2-1.3Z"/><path class="cls-66" d="m123.9,51.2c.9-1.8,3-2.8,5-2.3,2,.5,3.4,2.3,3.4,4.3"/><path class="cls-66" d="m134.8,51.1c.9-1.8,3-2.8,5-2.3,2,.5,3.4,2.3,3.4,4.3"/><path class="cls-66" d="m143.2,53.2c0-1.4,1.2-2.6,2.6-2.6s2.6,1.2,2.6,2.6"/><path class="cls-66" d="m131.2,50.3c1-.4,2.1-.3,3,.3.9.6,1.4,1.6,1.4,2.6"/><path class="cls-66" d="m124.7,46.2v3.8"/><path class="cls-66" d="m124.7,33.6h0c1.8,0,3.3,1.5,3.3,3.3v6.1c0,1.8-1.5,3.3-3.3,3.3h0c-1.8,0-3.3-1.5-3.3-3.3v-6.1c0-1.8,1.5-3.3,3.3-3.3Z"/><path class="cls-21" d="m31,44h24.9c.5,0,.9-.4.9-.9s-.4-.9-.9-.9h-24.9"/><path class="cls-66" d="m31,44h24.9c.5,0,.9-.4.9-.9h0c0-.5-.4-.9-.9-.9h-24.9"/><path class="cls-50" d="m57.3,53.1h4.5"/><path class="cls-50" d="m19.4,53.1h35.1"/><path class="cls-67" d="m45.9,44h-24.9c-.5,0-.9-.4-.9-.9h0c0-.5.4-.9.9-.9h24.9c.5,0,.9.4.9.9h0c0,.5-.4.9-.9.9Z"/><path class="cls-66" d="m57.3,53.1l-1.9-9.2"/><path class="cls-66" d="m30.1,33.7l.2-.7"/><path class="cls-66" d="m29.3,37.6l.3-1.6"/><path class="cls-66" d="m28.4,42.2l.5-2.6"/><path class="cls-66" d="m55,33.7l.2-.7"/><path class="cls-66" d="m54.3,37.6l.3-1.6"/><path class="cls-66" d="m53.3,42.2l.5-2.6"/><path class="cls-66" d="m47.2,44l1.8,9.2"/><path class="cls-66" d="m19.4,52.9l1.8-8.9"/><path class="cls-67" d="m57.5,35.8h-29.3c-.5,0-.9-.4-.9-.9h0c0-.5.4-.9.9-.9h29.3c.5,0,.9.4.9.9h0c0,.5-.4.9-.9.9Z"/><path class="cls-67" d="m56.3,39.4h-29.3c-.5,0-.9-.4-.9-.9h0c0-.5.4-.9.9-.9h29.3c.5,0,.9.4.9.9h0c0,.5-.4.9-.9.9Z"/><path class="cls-66" d="m27.4,35.7c-2.4.8-5,.8-7.4-.2"/><path class="cls-66" d="m13.8,27.7c-.8-4.9,2-9.8,6.7-11.5,4.7-1.7,10,.2,12.5,4.6,2.5,4.3,1.5,9.9-2.3,13.1"/><path class="cls-66" d="m24,44v8.8"/><path class="cls-66" d="m24,36.4v5.8"/><circle class="cls-66" cx="10.8" cy="36.4" r="9"/><path class="cls-66" d="m10.7,45.4v4.2"/><path class="cls-66" d="m4.6,51.5c.9-1.8,3-2.8,5-2.3,2,.5,3.4,2.3,3.4,4.3"/><path class="cls-66" d="m.2,53.5c0-1.4,1.2-2.6,2.6-2.6s2.6,1.2,2.6,2.6"/><path class="cls-66" d="m30.7,44l-1.8,8.9"/><path class="cls-1" d="m40.9,32.3c.8,0,1.5-.6,1.6-1.4h-1v-.7h-.9v.8h-1.2c.2.8.8,1.4,1.6,1.4h0Z"/><path class="cls-20" d="m42.6,30.9c-.1.8-.8,1.4-1.6,1.4s-1.5-.5-1.6-1.3h-1.1c-.8,0-1.6.4-2.4.8-.7.5-1.1,1.2-1.1,2.1s.4,1.6,1.1,2.1c.3.2.7.3,1.1.4,0,0,.1,1.8-.4,2.5h5.8l3.7-8h-3.5,0Z"/><path class="cls-43" d="m36.7,33s.7,2.1,3.5,2"/><path class="cls-43" d="m40.2,36.6c-1.4.2-2.9.1-4.2-.4"/><path class="cls-4" d="m41.3,30.9h1.6s.7-4.9-2.2-4.9-2.8,3.6-2.8,5.8,0,1.2,0,1.3h2.7v-5.3c0,0,0-.1.1-.1h1.4l-.8,2.6v.7h0Z"/><path class="cls-1" d="m40.6,30.2h.7c.3,0,.6-.2.8-.4.2-.3.2-.7.2-1.1,0-.8-.1-1-.2-1.1h-1.4s0,0,0,0v2.5h0Z"/><path class="cls-14" d="m41.3,30.6v-.4h-.7l.7.4Z"/><path class="cls-30" d="m36.6,38.8s-2.6,0-3.5,2.3c-.9,2.3-.9,4.8-.9,7.3h2.2s.2-3.4.7-4.8c0,0,.5-1.8,4.2-1.8l2.7-3.1h-5.5Z"/><path class="cls-30" d="m33.2,38.8s-2.6,0-3.5,2.3c-.9,2.3-.9,4.8-.9,7.3h2.2s.2-3.4.7-4.8c0,0,.8-2.4,4.2-1.8l2.7-3.1h-5.5Z"/><path class="cls-57" d="m36.8,38.6c-.4,0-.7,0-1,.2-.8.2-2.3.9-2.8,2.4-.9,2.3-.9,4.8-.9,7.3h2.1s.2-3.4.7-4.8c0,0,.8-2.4,4.2-1.8l2.6-3.3h-5,0Z"/><rect class="cls-1" x="28.9" y="48.4" width="1.7" height=".7"/><rect class="cls-1" x="32.2" y="48.4" width="1.7" height=".7"/><path class="cls-10" d="m33.9,49.1v.7c0,.2-.1.5-.3.7l-1.4,1.4c-.1.1-.3.1-.5,0-.2,0-.2-.3-.2-.4l.6-1.8v-.5s1.7,0,1.7,0Z"/><path class="cls-10" d="m30.6,49.1h-1.7v.5l-.6,1.8c0,.1,0,.3,0,.4l2.2-2.1v-.6h0Z"/><path class="cls-25" d="m28.9,51.8l1.4-1.4c.2-.2.3-.4.3-.7h0c0,0-2.2,2-2.2,2,.2.2.4.2.5,0h0Z"/><path class="cls-25" d="m32.2,51.8l1.4-1.4c.2-.2.3-.4.3-.7h0c0,0-2.2,2-2.2,2,.2.2.4.2.5,0h0Z"/><path class="cls-29" d="m48.7,30.3s-.7-.1-.8-1.1c-.1-.2-.3-.3-.5-.4,0,0,0-.2.1-.3,0-.3,0-.6-.3-.6-.2,0-.4.2-.5.5-.7-.3-1.4-.4-2.2-.3,0,0,.2,2.8,1.9,1.9v.2c.1,0,.1.2.1.3,0,0-.1.2-.2.2-.4,0-.7.2-1.1.4.6.6,1.5.9,2.3.8s1.6-.7,2-1.4c-.3-.1-.7-.2-1-.2h0Z"/><path class="cls-12" d="m49.7,30.5c-.4.7-1.2,1.3-2,1.4-.9.1-1.7-.2-2.3-.8-.9.4-1.8,1.2-1.9,2.5v5h-1.8s-2.2.5-2.9,2.6c-.7,2.1-.8,4.4-.8,5.9h7.3s-.2-3.2,1.2-5.3h2.1c2.1,0,3.1-2.8,3.4-4.4.4-2.4.4-6.1-2.2-7h0Z"/><path class="cls-61" d="m47.7,40.3s-1.4,2-1.8,3.5"/><path class="cls-61" d="m51.6,31.8c.6,1.2.7,2.6.2,3.8h-2.7c.2-.7.3-1.3.3-2"/><path class="cls-7" d="m46.6,30.1l.8-.5-.7.7s-.1-.3-.1-.3Z"/><path class="cls-29" d="m46.6,37.6l.6.9c2.6,0,3.7-2.1,4-2.7h-1.8c-.7,1.4-2.8,1.8-2.8,1.8Z"/><path class="cls-7" d="m49.1,35.9l2.1.5.2-.8-2-.2-.3.5h0Z"/><circle class="cls-18" cx="48.1" cy="26.8" r="1.2"/><path class="cls-15" d="m46.1,26.5s1.8,0,2.4,1.6l-1.2.5-1.6-2.2h.4c0,0,0,0,0,0Z"/><path class="cls-18" d="m47.9,27.8c-.1-.4-.3-.7-.5-.9s-.8-.5-1.2-.4c-.7,0-1.3.6-1.5,1.3v.3h0c0,.1,1.3.1,1.9.4h.2q0,0,0,0c0-.3.3-.5.5-.5.2,0,.3.3.3.6,0,.1,0,.2-.1.3.3.2.5.4.5.4,0,0,.4-.4,0-1.5h0Z"/><path class="cls-30" d="m47.7,38.8h-6.1c-.3,0-.5-.2-.6-.4l-2.4-4.3c0,0,0-.2,0-.3s.1-.1.2-.1h5.7c.3,0,.5.2.6.4l2.7,4.7h0Z"/><rect class="cls-30" x="45.4" y="38.3" width="4" height=".5"/><path class="cls-29" d="m42.5,47.2h-.4c0-1.2,0,0,0,0h-2.2c0,1.5.4,3.1.7,4.8,0,.2-.1.4-.3.5l-1.1.5c-.1,0-.2.2-.2.3,0,.1.2.2.3.2h4.1c.3,0,.5-.2.5-.5,0-1.9.3-3.9.7-5.8h-1.9,0Z"/><path class="cls-7" d="m44.8,48.9l-5.1-.8v-.9h5.1v1.8h0Z"/><path class="cls-63" d="m40.8,53.7c-.2,0-.3-.2-.3-.3s0-.3.2-.4l1.1-.5c.2,0,.3-.3.3-.5,0-1.6,0-3.2,0-4.8"/><path class="cls-1" d="m52.2,32.3c.2.5.2,1-.3,1.2-.5.2-1.1,0-1.2-.6s0-1.1.6-1.2.8.1.9.6h0Z"/><path class="cls-55" d="m53.4,52.8l-2.5-12.8c-.1-.4,0-.8.2-1.1.3-.3.7-.5,1.1-.5h0c.9,0,1.7.7,1.9,1.6"/><path class="cls-54" d="m53.4,52.9v-.3"/><path class="cls-19" d="m412.7,26.8h-1.4c0,0-2.7,6-2.7,6h1.4l.6-1.6h2.9l.7,1.6h1.4l-2.8-6Zm.4,3.5h-2.2l1.1-2.4,1.1,2.4h0Z"/><path class="cls-19" d="m12.5,39.5h.7l-.7-1.9h-3.4l-.7,1.9h.9v1h-2.8v-1h.7l2.7-7.7h1.7l2.7,7.7h.9v1h-2.8s0-1,0-1Zm-3-2.9h2.7l-1.3-3.9s-1.3,3.9-1.3,3.9Z"/><path class="cls-19" d="m402.9,23.7v3.3c.1,0,.1.1.1.1,0,.1,0,.2,0,.2,0,0-.1,0-.2,0s-.2,0-.2,0,0,0,0-.2c0,0,0,0,0-.1v-.3s0-1.3,0-1.3c0-.1-.2-.2-.7-.3s-.8-.1-1-.1-.2.2-.2.5c0,.3-.1.7-.2,1s-.1.6-.2.7c-.2,0-.3,0-.4-.2.2-.2.3-.7.4-1.4s.2-1.3.3-1.6c0-.4.2-1.1.4-2.1.2-1.1.3-1.8.4-2.1s.1-.5.2-.7,0-.4.2-.5c.2-.5.3-.8.4-.8.2,0,.2,0,.3.1s0,.2.1.4,0,.5,0,.9,0,.7,0,.9c0,.9.1,1.4.2,1.8,0,.3,0,.5.2.6,0,.3,0,.5,0,.7s0,.4.1.5h0Zm-2.1,1.1c.4.1.8.2,1.3.2h.3s0,0,0,0c0-1.8-.2-3.7-.5-5.8,0,0,0,0,0-.1s0-.1,0-.2c0,.3-.2.5-.2.6h0c0,0,0,.2-.1.5s-.2.8-.3,1.6c-.1.8-.2,1.4-.3,1.6s0,.4-.2.6c-.2.4-.2.7-.2,1h0c0,0,0,0,0,0Z"/><path class="cls-19" d="m25.6,30.3l-1.2-3.6h-3.3l-1.3,3.6h1.2v.3h-2.6v-.3h.8l4.3-11.5h1.4l4.2,11.5h.8v.3h-5.5v-.3h1.2Zm-2.8-8.3l-1.6,4.3h3l-1.4-4.3Z"/><path class="cls-19" d="m122.5,42.5h0s1.8-5.9,1.8-5.9c0-.1.2-.2.3-.2s.3,0,.4.2l1.8,5.9h0c0,.1,0,.2-.1.2s-.2,0-.2,0-.2,0-.2-.2l-.4-1.3h-2.4l-.4,1.3c0,0,0,.2-.2.2s-.2,0-.2,0-.1,0-.1-.2h0Zm1.1-1.7h2.1l-1.1-3.5-1.1,3.5h0Z"/></svg>